<?xml version="1.0" encoding="utf-8"?>
<svg viewBox="24.0512 -0.0001 45.5078 74.7798" xmlns="http://www.w3.org/2000/svg">
  <path d="M 41.505 32.481 C 40.525 32.481 39.734 31.69 39.734 30.71 C 39.734 29.731 40.525 28.94 41.505 28.94 L 72.766 28.94 C 72.893 28.94 73.021 28.952 73.143 28.982 C 74.263 29.153 75.309 29.469 76.246 29.974 C 77.281 30.534 78.163 31.307 78.845 32.341 C 81.188 35.889 80.841 39.181 79.186 41.615 C 78.109 43.204 76.465 44.384 74.652 45.005 C 72.826 45.632 70.806 45.693 68.98 45.023 C 66.218 44.013 63.978 41.439 63.65 36.778 C 63.583 35.804 64.319 34.964 65.293 34.897 C 66.266 34.83 67.106 35.567 67.173 36.54 C 67.386 39.546 68.64 41.141 70.179 41.701 C 71.22 42.078 72.413 42.029 73.514 41.652 C 74.634 41.269 75.632 40.563 76.265 39.632 C 77.171 38.299 77.305 36.419 75.893 34.283 C 75.547 33.759 75.096 33.364 74.567 33.078 C 74.013 32.779 73.368 32.585 72.662 32.475 L 41.505 32.475 L 41.505 32.481 Z M 33.423 16.556 C 32.444 16.556 31.652 15.765 31.652 14.785 C 31.652 13.805 32.444 13.014 33.423 13.014 L 64.587 13.014 C 65.299 12.904 65.944 12.71 66.498 12.412 C 67.027 12.126 67.477 11.73 67.824 11.207 C 69.236 9.071 69.096 7.19 68.195 5.858 C 67.563 4.926 66.565 4.221 65.445 3.837 C 64.343 3.46 63.144 3.411 62.11 3.788 C 60.576 4.348 59.317 5.943 59.104 8.949 C 59.037 9.923 58.197 10.659 57.223 10.592 C 56.25 10.525 55.513 9.685 55.58 8.712 C 55.909 4.05 58.148 1.476 60.911 0.466 C 62.737 -0.197 64.757 -0.137 66.583 0.484 C 68.396 1.105 70.039 2.291 71.116 3.874 C 72.772 6.308 73.119 9.6 70.776 13.148 C 70.094 14.182 69.212 14.955 68.177 15.515 C 67.24 16.02 66.193 16.337 65.074 16.507 C 64.952 16.531 64.824 16.55 64.696 16.55 L 33.423 16.55 L 33.423 16.556 Z M 25.816 24.522 C 24.837 24.522 24.046 23.724 24.046 22.751 C 24.046 21.771 24.837 20.98 25.816 20.98 L 90.973 20.98 C 91.685 20.87 92.33 20.676 92.878 20.377 C 93.407 20.091 93.858 19.696 94.205 19.172 C 95.616 17.036 95.476 15.156 94.576 13.823 C 93.943 12.892 92.945 12.186 91.825 11.803 C 90.724 11.426 89.525 11.377 88.49 11.754 C 86.957 12.314 85.697 13.909 85.484 16.915 C 85.417 17.888 84.577 18.625 83.604 18.558 C 82.63 18.491 81.894 17.651 81.961 16.677 C 82.289 12.016 84.529 9.442 87.291 8.432 C 89.117 7.768 91.137 7.829 92.963 8.45 C 94.777 9.071 96.42 10.257 97.497 11.839 C 99.152 14.274 99.499 17.566 97.156 21.114 C 96.474 22.148 95.592 22.921 94.557 23.481 C 93.62 23.986 92.574 24.302 91.454 24.473 C 91.332 24.497 91.204 24.515 91.077 24.515 L 25.816 24.515 L 25.816 24.522 Z" style="fill: rgb(255, 245, 225);" transform="matrix(0, -1, 1, 0, 24.058136171631304, 98.82562637329102)"/>
</svg>